<?xml version="1.0" encoding="UTF-8"?>
<svg version="1.1" xmlns="http://www.w3.org/2000/svg" width="178" height="37">
<path d="M0 0 C4.95 0 9.9 0 15 0 C15 2.31 15 4.62 15 7 C17.64 7 20.28 7 23 7 C23 11.95 23 16.9 23 22 C20.36 22 17.72 22 15 22 C15 24.64 15 27.28 15 30 C10.05 30 5.1 30 0 30 C0 27.69 0 25.38 0 23 C-2.31 22.67 -4.62 22.34 -7 22 C-7 17.05 -7 12.1 -7 7 C-4.69 7 -2.38 7 0 7 C0 4.69 0 2.38 0 0 Z M5 4 C5 5.98 5 7.96 5 10 C6.98 9.01 8.96 8.02 11 7 C11 6.01 11 5.02 11 4 C9.02 4 7.04 4 5 4 Z M-3 12 C-3 13.98 -3 15.96 -3 18 C3.98629919 18.50604984 8.20200116 18.0333905 14 14 C13.34 15.32 12.68 16.64 12 18 C14.31 18 16.62 18 19 18 C19 16.02 19 14.04 19 12 C10.40422826 11.28848752 10.40422826 11.28848752 3 15 C3 15.66 3 16.32 3 17 C2.34 17 1.68 17 1 17 C1.66 15.35 2.32 13.7 3 12 C1.02 12 -0.96 12 -3 12 Z M4 22 C4.33 23.32 4.66 24.64 5 26 C6.98 26 8.96 26 11 26 C11 23.69 11 21.38 11 19 C8.62779013 19 6.07122267 20.94235438 4 22 Z " fill="#1977D2" transform="translate(11,3)"/>
<path d="M0 0 C1.98 0 3.96 0 6 0 C7.65 3.96 9.3 7.92 11 12 C11.61875 10.7625 12.2375 9.525 12.875 8.25 C14.9375 4.125 14.9375 4.125 17 0 C18.98 0 20.96 0 23 0 C23 6.93 23 13.86 23 21 C21.35 21 19.7 21 18 21 C17.67 18.36 17.34 15.72 17 13 C16.01 15.64 15.02 18.28 14 21 C12.35 21 10.7 21 9 21 C7.68 18.03 6.36 15.06 5 12 C4.67 14.97 4.34 17.94 4 21 C2.68 21 1.36 21 0 21 C0 14.07 0 7.14 0 0 Z " fill="#1A76D1" transform="translate(43,6)"/>
<path d="M0 0 C10.546875 -0.48828125 10.546875 -0.48828125 14 0 C17.05550285 2.89805343 17.9120795 4.29663601 18.4375 8.5 C17.96825192 12.25398461 17.50184959 14.16457047 15 17 C11.38265938 18.05505768 9.59002381 18.1966746 6 17 C5.67 19.64 5.34 22.28 5 25 C3.35 25 1.7 25 0 25 C0 16.75 0 8.5 0 0 Z M5 6 C4.58333333 8.5 4.58333333 8.5 5 11 C5.66 11.66 6.32 12.32 7 13 C9.60280568 12.67958603 9.60280568 12.67958603 12 12 C12.76956136 9.65466049 12.76956136 9.65466049 13 7 C11.79081118 5.12359581 11.79081118 5.12359581 10 4 C7.67642489 3.81509993 7.67642489 3.81509993 5 6 Z " fill="#202020" transform="translate(116,10)"/>
<path d="M0 0 C1.65 0 3.3 0 5 0 C5 7.59 5 15.18 5 23 C2.66666667 23 0.33333333 23 -2 23 C-2.763125 23.226875 -3.52625 23.45375 -4.3125 23.6875 C-7.83269551 24.09682506 -9.21418494 23.08936129 -12 21 C-13.73119043 17.53761913 -13.47070629 13.78582345 -13 10 C-11.4375 7.4375 -11.4375 7.4375 -9 6 C-5.3125 5.6875 -5.3125 5.6875 -2 6 C-1.67 6.33 -1.34 6.66 -1 7 C-0.67 4.69 -0.34 2.38 0 0 Z M-6 10 C-8.2491908 11.82703227 -8.2491908 11.82703227 -8.25 14.5 C-8.2491908 17.17296773 -8.2491908 17.17296773 -6 19 C-3.39719432 18.67958603 -3.39719432 18.67958603 -1 18 C-0.23043864 15.65466049 -0.23043864 15.65466049 0 13 C-1.14646548 11.10338257 -1.14646548 11.10338257 -3 10 C-3.99 10 -4.98 10 -6 10 Z " fill="#1A76D1" transform="translate(100,4)"/>
<path d="M0 0 C2.5 1.625 2.5 1.625 4 4 C4.25 7.25 4.25 7.25 4 10 C-1.445 10.495 -1.445 10.495 -7 11 C-7 11.66 -7 12.32 -7 13 C-6.113125 12.67 -5.22625 12.34 -4.3125 12 C-1.29076653 11.08777857 0.88373706 10.81669042 4 11 C3.14382686 13.71121495 2.54750525 15.55388461 0.3125 17.375 C-3.15005353 18.31082528 -5.55018394 17.92405787 -9 17 C-11.5 15 -11.5 15 -13 12 C-13.29120856 7.85027804 -12.98503421 4.30024516 -10.4375 0.9375 C-6.89307045 -0.42574213 -3.74188794 -0.68243448 0 0 Z M-6 4 C-6.99 5.485 -6.99 5.485 -8 7 C-5.69 7 -3.38 7 -1 7 C-1.33 6.01 -1.66 5.02 -2 4 C-3.32 4 -4.64 4 -6 4 Z " fill="#1A76D1" transform="translate(81,10)"/>
<path d="M0 0 C1.65 0 3.3 0 5 0 C5.33 3.96 5.66 7.92 6 12 C7.32 12 8.64 12 10 12 C11.21693876 9.56612247 11.31959896 7.58161154 11.5625 4.875 C11.64628906 3.96492187 11.73007813 3.05484375 11.81640625 2.1171875 C11.87699219 1.41851562 11.93757812 0.71984375 12 0 C13.65 0 15.3 0 17 0 C17 5.61 17 11.22 17 17 C14.69 17 12.38 17 10 17 C9.113125 17.20625 8.22625 17.4125 7.3125 17.625 C4.48311107 18.08381983 3.34384301 17.5904649 1 16 C-0.50156874 12.99686252 -0.09281204 10.20932478 -0.0625 6.875 C-0.05347656 5.59367188 -0.04445312 4.31234375 -0.03515625 2.9921875 C-0.02355469 2.00476563 -0.01195312 1.01734375 0 0 Z " fill="#202020" transform="translate(144,10)"/>
<path d="M0 0 C2 1.3125 2 1.3125 3 3 C3 3.99 3 4.98 3 6 C1.35 6 -0.3 6 -2 6 C-2 5.34 -2 4.68 -2 4 C-2.99 4 -3.98 4 -5 4 C-5.33 4.66 -5.66 5.32 -6 6 C-3.03 6.99 -0.06 7.98 3 9 C3.48038431 14.40432346 3.48038431 14.40432346 1.4375 16.9375 C-2.05916486 18.46168725 -4.35314716 17.92828981 -8 17 C-9.9375 15.625 -9.9375 15.625 -11 14 C-11 13.01 -11 12.02 -11 11 C-9.35 11 -7.7 11 -6 11 C-5.67 11.66 -5.34 12.32 -5 13 C-4.01 12.67 -3.02 12.34 -2 12 C-2.56589844 11.85304688 -3.13179687 11.70609375 -3.71484375 11.5546875 C-5.96865396 10.86547313 -7.9479648 10.16396954 -10 9 C-11.1875 6 -11.1875 6 -11 3 C-8.89950824 -1.20098351 -4.09760261 -0.64025041 0 0 Z " fill="#202020" transform="translate(174,10)"/>
<path d="M0 0 C0.33 0 0.66 0 1 0 C1 2.31 1 4.62 1 7 C3.64 7 6.28 7 9 7 C9 11.95 9 16.9 9 22 C6.36 22 3.72 22 1 22 C1 24.64 1 27.28 1 30 C0.67 30 0.34 30 0 30 C0 27.03 0 24.06 0 21 C2.64 21 5.28 21 8 21 C8 16.71 8 12.42 8 8 C4.04 8 0.08 8 -4 8 C-3.67 6.68 -3.34 5.36 -3 4 C-4.98 4 -6.96 4 -9 4 C-8.65555119 6.47266765 -8.65555119 6.47266765 -8 9 C-5.29816945 10.35091528 -2.88191794 10.33858058 0.125 10.5625 C1.76855469 10.68818359 1.76855469 10.68818359 3.4453125 10.81640625 C4.28835937 10.87699219 5.13140625 10.93757812 6 11 C6 13.64 6 16.28 6 19 C3.36 19 0.72 19 -2 19 C-2 21.31 -2 23.62 -2 26 C-2.33 26 -2.66 26 -3 26 C-3.33 23.36 -3.66 20.72 -4 18 C-0.93109813 16.46554906 1.70094266 17.45015711 5 18 C5 16.02 5 14.04 5 12 C3.24929483 12.11470137 1.49942464 12.24219028 -0.25 12.375 C-1.22453125 12.44460938 -2.1990625 12.51421875 -3.203125 12.5859375 C-5.92639708 12.98910348 -7.69123113 13.52789508 -10 15 C-10.33 15.66 -10.66 16.32 -11 17 C-11.66 17 -12.32 17 -13 17 C-12.67 15.68 -12.34 14.36 -12 13 C-13.65 12.67 -15.3 12.34 -17 12 C-17 13.65 -17 15.3 -17 17 C-17.33 17 -17.66 17 -18 17 C-18 15.02 -18 13.04 -18 11 C-15.36 11 -12.72 11 -10 11 C-10 8.36 -10 5.72 -10 3 C-7.36 3 -4.72 3 -2 3 C-2 4.32 -2 5.64 -2 7 C-1.34 7 -0.68 7 0 7 C0 4.69 0 2.38 0 0 Z M-8 26 C-6.35 26 -4.7 26 -3 26 C-3 26.33 -3 26.66 -3 27 C-4.65 27 -6.3 27 -8 27 C-8 26.67 -8 26.34 -8 26 Z " fill="#1B82D7" transform="translate(25,3)"/>
<path d="M0 0 C1.65 0 3.3 0 5 0 C5 7.59 5 15.18 5 23 C3.35 23 1.7 23 0 23 C0 15.41 0 7.82 0 0 Z " fill="#202020" transform="translate(136,4)"/>
<path d="M0 0 C1.65 0 3.3 0 5 0 C5 5.61 5 11.22 5 17 C3.35 17 1.7 17 0 17 C0 11.39 0 5.78 0 0 Z " fill="#1A76D1" transform="translate(108,10)"/>
<path d="M0 0 C1.65 0 3.3 0 5 0 C5 1.65 5 3.3 5 5 C3.35 5 1.7 5 0 5 C0 3.35 0 1.7 0 0 Z " fill="#1A76D1" transform="translate(108,3)"/>
</svg>
